%
M48
M72
T01C0.0236
T02C0.0276
T03C0.0320
T04C0.0866
%
T01
X4180Y7180
X5180Y7180
X5180Y8180
X5180Y9180
X4180Y9180
X4180Y8180
X4180Y10180
X5180Y10180
X6180Y10180
X6180Y9180
X6180Y8180
X6180Y7180
X7180Y7180
X7180Y8180
X7180Y9180
X7180Y10180
X8180Y10180
X9180Y10180
X9180Y9180
X9180Y8180
X8180Y8180
X8180Y9180
X8180Y7180
X9180Y7180
T02
X3786Y5180
X4574Y5180
X2849Y7759
X2849Y8546
X2849Y9334
X2849Y10121
X2849Y10908
X2849Y11696
X2849Y12483
X2849Y13271
X2849Y14058
X2849Y14845
X11511Y14845
X11511Y14058
X11511Y13271
X11511Y12483
X11511Y11696
X11511Y10908
X11511Y10121
X11511Y9334
X11511Y8546
X11511Y7759
X13211Y8393
X13211Y9180
X13211Y9967
X13211Y12893
X13211Y13680
X13211Y14467
X13211Y5467
X13211Y4680
X13211Y3893
T03
X10680Y3680
X10680Y5680
X8180Y5680
X8180Y4680
X8180Y3680
T04
X8980Y1780
X1680Y15680
X16280Y15680
M30
