G75*
G70*
%OFA0B0*%
%FSLAX24Y24*%
%IPPOS*%
%LPD*%
%AMOC8*
5,1,8,0,0,1.08239X$1,22.5*
%
%ADD10C,0.0040*%
%ADD11C,0.0060*%
%ADD12C,0.0000*%
D10*
X014047Y004685D02*
X014507Y004685D01*
X014507Y004915D01*
X014430Y004992D01*
X014277Y004992D01*
X014200Y004915D01*
X014200Y004685D01*
X014200Y004532D02*
X014277Y004455D01*
X014584Y004455D01*
X014507Y004378D02*
X014507Y004532D01*
X014507Y004225D02*
X014507Y004071D01*
X014584Y004148D02*
X014277Y004148D01*
X014200Y004225D01*
X014200Y003918D02*
X014430Y003918D01*
X014507Y003841D01*
X014507Y003688D01*
X014430Y003611D01*
X014660Y003611D02*
X014200Y003611D01*
X014200Y005146D02*
X014277Y005146D01*
X014277Y005222D01*
X014200Y005222D01*
X014200Y005146D01*
X014200Y005376D02*
X014660Y005683D01*
X014660Y006143D02*
X014200Y005836D01*
X014277Y006297D02*
X014200Y006373D01*
X014200Y006603D01*
X014123Y006603D02*
X014507Y006603D01*
X014507Y006373D01*
X014430Y006297D01*
X014277Y006297D01*
X014047Y006450D02*
X014047Y006527D01*
X014123Y006603D01*
X014200Y006757D02*
X014200Y006910D01*
X014200Y006834D02*
X014507Y006834D01*
X014507Y006757D01*
X014660Y006834D02*
X014737Y006834D01*
X014507Y007064D02*
X014507Y007217D01*
X014584Y007141D02*
X014277Y007141D01*
X014200Y007217D01*
X014200Y007371D02*
X014660Y007371D01*
X014507Y007448D02*
X014507Y007601D01*
X014430Y007678D01*
X014200Y007678D01*
X014277Y007831D02*
X014200Y007908D01*
X014200Y008138D01*
X014507Y008138D01*
X014507Y008292D02*
X014507Y008522D01*
X014430Y008599D01*
X014277Y008599D01*
X014200Y008522D01*
X014200Y008292D01*
X014660Y008292D01*
X014507Y007831D02*
X014277Y007831D01*
X014507Y007448D02*
X014430Y007371D01*
X014277Y008752D02*
X014200Y008752D01*
X014200Y008829D01*
X014277Y008829D01*
X014277Y008752D01*
X014277Y008982D02*
X014200Y009059D01*
X014200Y009289D01*
X014277Y009443D02*
X014200Y009519D01*
X014200Y009673D01*
X014277Y009750D01*
X014430Y009750D01*
X014507Y009673D01*
X014507Y009519D01*
X014430Y009443D01*
X014277Y009443D01*
X014507Y009289D02*
X014507Y009059D01*
X014430Y008982D01*
X014277Y008982D01*
X014200Y009903D02*
X014507Y009903D01*
X014507Y009980D01*
X014430Y010056D01*
X014507Y010133D01*
X014430Y010210D01*
X014200Y010210D01*
X014200Y010363D02*
X014660Y010670D01*
X014507Y010824D02*
X014507Y010900D01*
X014430Y010977D01*
X014507Y011054D01*
X014430Y011131D01*
X014200Y011131D01*
X014200Y010977D02*
X014430Y010977D01*
X014507Y010824D02*
X014200Y010824D01*
X014047Y011284D02*
X014047Y011361D01*
X014123Y011438D01*
X014507Y011438D01*
X014660Y011438D02*
X014737Y011438D01*
X014660Y011591D02*
X014200Y011591D01*
X014430Y011591D02*
X014507Y011668D01*
X014507Y011821D01*
X014430Y011898D01*
X014200Y011898D01*
X014277Y012051D02*
X014200Y012128D01*
X014200Y012282D01*
X014277Y012358D01*
X014430Y012358D01*
X014507Y012282D01*
X014507Y012128D01*
X014430Y012051D01*
X014277Y012051D01*
X014200Y012512D02*
X014200Y012665D01*
X014200Y012589D02*
X014660Y012589D01*
X014660Y012512D01*
X014507Y012819D02*
X014507Y012896D01*
X014430Y012972D01*
X014507Y013049D01*
X014430Y013126D01*
X014200Y013126D01*
X014200Y012972D02*
X014430Y012972D01*
X014507Y012819D02*
X014200Y012819D01*
X014277Y013279D02*
X014200Y013356D01*
X014200Y013509D01*
X014353Y013586D02*
X014353Y013279D01*
X014277Y013279D02*
X014430Y013279D01*
X014507Y013356D01*
X014507Y013509D01*
X014430Y013586D01*
X014353Y013586D01*
X014430Y013740D02*
X014507Y013816D01*
X014507Y014047D01*
X014353Y013970D02*
X014353Y013816D01*
X014430Y013740D01*
X014200Y013740D02*
X014200Y013970D01*
X014277Y014047D01*
X014353Y013970D01*
X014430Y010056D02*
X014200Y010056D01*
X014430Y005222D02*
X014430Y005146D01*
X014507Y005146D01*
X014507Y005222D01*
X014430Y005222D01*
D11*
X015110Y004895D02*
X015110Y004467D01*
X015751Y004467D01*
X015751Y004895D01*
X015430Y004681D02*
X015430Y004467D01*
X015110Y004250D02*
X015110Y003823D01*
X015751Y003823D01*
X015751Y004250D01*
X015430Y004036D02*
X015430Y003823D01*
X015324Y003605D02*
X015217Y003605D01*
X015110Y003499D01*
X015110Y003178D01*
X015751Y003178D01*
X015751Y003499D01*
X015644Y003605D01*
X015537Y003605D01*
X015430Y003499D01*
X015430Y003178D01*
X015430Y003499D02*
X015324Y003605D01*
X015110Y002961D02*
X015751Y002534D01*
X015751Y002961D02*
X015110Y002534D01*
X015217Y005757D02*
X015110Y005863D01*
X015110Y006077D01*
X015217Y006184D01*
X015324Y006184D01*
X015430Y006077D01*
X015430Y005863D01*
X015537Y005757D01*
X015644Y005757D01*
X015751Y005863D01*
X015751Y006077D01*
X015644Y006184D01*
X015430Y006401D02*
X015537Y006508D01*
X015537Y006721D01*
X015430Y006828D01*
X015324Y006828D01*
X015324Y006401D01*
X015430Y006401D02*
X015217Y006401D01*
X015110Y006508D01*
X015110Y006721D01*
X015110Y007046D02*
X015537Y007046D01*
X015537Y007366D01*
X015430Y007473D01*
X015110Y007473D01*
X015110Y007690D02*
X015110Y008011D01*
X015217Y008117D01*
X015324Y008011D01*
X015324Y007797D01*
X015430Y007690D01*
X015537Y007797D01*
X015537Y008117D01*
X015430Y008335D02*
X015217Y008335D01*
X015110Y008442D01*
X015110Y008655D01*
X015217Y008762D01*
X015430Y008762D01*
X015537Y008655D01*
X015537Y008442D01*
X015430Y008335D01*
X015324Y008979D02*
X015537Y009193D01*
X015537Y009300D01*
X015537Y008979D02*
X015110Y008979D01*
X015110Y010161D02*
X015110Y010481D01*
X015217Y010588D01*
X015430Y010588D01*
X015537Y010481D01*
X015537Y010161D01*
X015751Y010161D02*
X015110Y010161D01*
X015217Y010806D02*
X015110Y010912D01*
X015110Y011126D01*
X015217Y011233D01*
X015430Y011233D01*
X015537Y011126D01*
X015537Y010912D01*
X015430Y010806D01*
X015217Y010806D01*
X015217Y011450D02*
X015110Y011557D01*
X015110Y011877D01*
X015430Y011877D01*
X015537Y011770D01*
X015537Y011557D01*
X015324Y011557D02*
X015324Y011877D01*
X015324Y012095D02*
X015537Y012308D01*
X015537Y012415D01*
X015430Y012632D02*
X015537Y012739D01*
X015537Y013059D01*
X015751Y013059D02*
X015110Y013059D01*
X015110Y012739D01*
X015217Y012632D01*
X015430Y012632D01*
X015537Y012095D02*
X015110Y012095D01*
X015324Y011557D02*
X015217Y011450D01*
X015537Y013921D02*
X015110Y014134D01*
X015537Y014348D01*
X015537Y014565D02*
X015751Y014779D01*
X015110Y014779D01*
X015110Y014992D02*
X015110Y014565D01*
D12*
X001680Y014180D02*
X001680Y002180D01*
X007180Y002180D01*
X007224Y002178D01*
X007267Y002172D01*
X007309Y002163D01*
X007351Y002150D01*
X007391Y002133D01*
X007430Y002113D01*
X007467Y002090D01*
X007501Y002063D01*
X007534Y002034D01*
X007563Y002001D01*
X007590Y001967D01*
X007613Y001930D01*
X007633Y001891D01*
X007650Y001851D01*
X007663Y001809D01*
X007672Y001767D01*
X007678Y001724D01*
X007680Y001680D01*
X007682Y001620D01*
X007687Y001559D01*
X007696Y001500D01*
X007709Y001441D01*
X007725Y001382D01*
X007745Y001325D01*
X007768Y001270D01*
X007795Y001215D01*
X007824Y001163D01*
X007857Y001112D01*
X007893Y001063D01*
X007931Y001017D01*
X007973Y000973D01*
X008017Y000931D01*
X008063Y000893D01*
X008112Y000857D01*
X008163Y000824D01*
X008215Y000795D01*
X008270Y000768D01*
X008325Y000745D01*
X008382Y000725D01*
X008441Y000709D01*
X008500Y000696D01*
X008559Y000687D01*
X008620Y000682D01*
X008680Y000680D01*
X009180Y000680D01*
X009240Y000682D01*
X009301Y000687D01*
X009360Y000696D01*
X009419Y000709D01*
X009478Y000725D01*
X009535Y000745D01*
X009590Y000768D01*
X009645Y000795D01*
X009697Y000824D01*
X009748Y000857D01*
X009797Y000893D01*
X009843Y000931D01*
X009887Y000973D01*
X009929Y001017D01*
X009967Y001063D01*
X010003Y001112D01*
X010036Y001163D01*
X010065Y001215D01*
X010092Y001270D01*
X010115Y001325D01*
X010135Y001382D01*
X010151Y001441D01*
X010164Y001500D01*
X010173Y001559D01*
X010178Y001620D01*
X010180Y001680D01*
X010182Y001724D01*
X010188Y001767D01*
X010197Y001809D01*
X010210Y001851D01*
X010227Y001891D01*
X010247Y001930D01*
X010270Y001967D01*
X010297Y002001D01*
X010326Y002034D01*
X010359Y002063D01*
X010393Y002090D01*
X010430Y002113D01*
X010469Y002133D01*
X010509Y002150D01*
X010551Y002163D01*
X010593Y002172D01*
X010636Y002178D01*
X010680Y002180D01*
X016180Y002180D01*
X016180Y014180D01*
X016180Y014181D02*
X016251Y014194D01*
X016320Y014212D01*
X016389Y014233D01*
X016456Y014257D01*
X016522Y014286D01*
X016586Y014318D01*
X016649Y014353D01*
X016709Y014392D01*
X016767Y014434D01*
X016823Y014480D01*
X016876Y014528D01*
X016926Y014579D01*
X016974Y014633D01*
X017018Y014689D01*
X017059Y014747D01*
X017098Y014808D01*
X017132Y014871D01*
X017163Y014936D01*
X017191Y015002D01*
X017215Y015069D01*
X017235Y015138D01*
X017251Y015208D01*
X017264Y015279D01*
X017272Y015350D01*
X017277Y015422D01*
X017278Y015493D01*
X017275Y015565D01*
X017268Y015636D01*
X017256Y015707D01*
X017242Y015777D01*
X017223Y015847D01*
X017200Y015915D01*
X017174Y015981D01*
X017144Y016047D01*
X017111Y016110D01*
X017074Y016172D01*
X017034Y016231D01*
X016991Y016288D01*
X016944Y016343D01*
X016895Y016395D01*
X016843Y016444D01*
X016788Y016491D01*
X016731Y016534D01*
X016672Y016574D01*
X016610Y016611D01*
X016547Y016644D01*
X016481Y016674D01*
X016415Y016700D01*
X016347Y016723D01*
X016277Y016742D01*
X016207Y016756D01*
X016136Y016768D01*
X016065Y016775D01*
X015993Y016778D01*
X015922Y016777D01*
X015850Y016772D01*
X015779Y016764D01*
X015708Y016751D01*
X015638Y016735D01*
X015569Y016715D01*
X015502Y016691D01*
X015436Y016663D01*
X015371Y016632D01*
X015308Y016598D01*
X015247Y016559D01*
X015189Y016518D01*
X015133Y016474D01*
X015079Y016426D01*
X015028Y016376D01*
X014980Y016323D01*
X014934Y016267D01*
X014892Y016209D01*
X014853Y016149D01*
X014818Y016086D01*
X014786Y016022D01*
X014757Y015956D01*
X014733Y015889D01*
X014712Y015820D01*
X014694Y015751D01*
X014681Y015680D01*
X014680Y015680D02*
X010180Y015680D01*
X008680Y014180D01*
X005680Y014180D01*
X004180Y015680D01*
X003180Y015680D01*
X003179Y015680D02*
X003166Y015751D01*
X003148Y015820D01*
X003127Y015889D01*
X003103Y015956D01*
X003074Y016022D01*
X003042Y016086D01*
X003007Y016149D01*
X002968Y016209D01*
X002926Y016267D01*
X002880Y016323D01*
X002832Y016376D01*
X002781Y016426D01*
X002727Y016474D01*
X002671Y016518D01*
X002613Y016559D01*
X002552Y016598D01*
X002489Y016632D01*
X002424Y016663D01*
X002358Y016691D01*
X002291Y016715D01*
X002222Y016735D01*
X002152Y016751D01*
X002081Y016764D01*
X002010Y016772D01*
X001938Y016777D01*
X001867Y016778D01*
X001795Y016775D01*
X001724Y016768D01*
X001653Y016756D01*
X001583Y016742D01*
X001513Y016723D01*
X001445Y016700D01*
X001379Y016674D01*
X001313Y016644D01*
X001250Y016611D01*
X001188Y016574D01*
X001129Y016534D01*
X001072Y016491D01*
X001017Y016444D01*
X000965Y016395D01*
X000916Y016343D01*
X000869Y016288D01*
X000826Y016231D01*
X000786Y016172D01*
X000749Y016110D01*
X000716Y016047D01*
X000686Y015981D01*
X000660Y015915D01*
X000637Y015847D01*
X000618Y015777D01*
X000604Y015707D01*
X000592Y015636D01*
X000585Y015565D01*
X000582Y015493D01*
X000583Y015422D01*
X000588Y015350D01*
X000596Y015279D01*
X000609Y015208D01*
X000625Y015138D01*
X000645Y015069D01*
X000669Y015002D01*
X000697Y014936D01*
X000728Y014871D01*
X000762Y014808D01*
X000801Y014747D01*
X000842Y014689D01*
X000886Y014633D01*
X000934Y014579D01*
X000984Y014528D01*
X001037Y014480D01*
X001093Y014434D01*
X001151Y014392D01*
X001211Y014353D01*
X001274Y014318D01*
X001338Y014286D01*
X001404Y014257D01*
X001471Y014233D01*
X001540Y014212D01*
X001609Y014194D01*
X001680Y014181D01*
X001247Y015680D02*
X001249Y015721D01*
X001255Y015762D01*
X001265Y015802D01*
X001278Y015841D01*
X001295Y015878D01*
X001316Y015914D01*
X001340Y015948D01*
X001367Y015979D01*
X001396Y016007D01*
X001429Y016033D01*
X001463Y016055D01*
X001500Y016074D01*
X001538Y016089D01*
X001578Y016101D01*
X001618Y016109D01*
X001659Y016113D01*
X001701Y016113D01*
X001742Y016109D01*
X001782Y016101D01*
X001822Y016089D01*
X001860Y016074D01*
X001896Y016055D01*
X001931Y016033D01*
X001964Y016007D01*
X001993Y015979D01*
X002020Y015948D01*
X002044Y015914D01*
X002065Y015878D01*
X002082Y015841D01*
X002095Y015802D01*
X002105Y015762D01*
X002111Y015721D01*
X002113Y015680D01*
X002111Y015639D01*
X002105Y015598D01*
X002095Y015558D01*
X002082Y015519D01*
X002065Y015482D01*
X002044Y015446D01*
X002020Y015412D01*
X001993Y015381D01*
X001964Y015353D01*
X001931Y015327D01*
X001897Y015305D01*
X001860Y015286D01*
X001822Y015271D01*
X001782Y015259D01*
X001742Y015251D01*
X001701Y015247D01*
X001659Y015247D01*
X001618Y015251D01*
X001578Y015259D01*
X001538Y015271D01*
X001500Y015286D01*
X001464Y015305D01*
X001429Y015327D01*
X001396Y015353D01*
X001367Y015381D01*
X001340Y015412D01*
X001316Y015446D01*
X001295Y015482D01*
X001278Y015519D01*
X001265Y015558D01*
X001255Y015598D01*
X001249Y015639D01*
X001247Y015680D01*
X008547Y001780D02*
X008549Y001821D01*
X008555Y001862D01*
X008565Y001902D01*
X008578Y001941D01*
X008595Y001978D01*
X008616Y002014D01*
X008640Y002048D01*
X008667Y002079D01*
X008696Y002107D01*
X008729Y002133D01*
X008763Y002155D01*
X008800Y002174D01*
X008838Y002189D01*
X008878Y002201D01*
X008918Y002209D01*
X008959Y002213D01*
X009001Y002213D01*
X009042Y002209D01*
X009082Y002201D01*
X009122Y002189D01*
X009160Y002174D01*
X009196Y002155D01*
X009231Y002133D01*
X009264Y002107D01*
X009293Y002079D01*
X009320Y002048D01*
X009344Y002014D01*
X009365Y001978D01*
X009382Y001941D01*
X009395Y001902D01*
X009405Y001862D01*
X009411Y001821D01*
X009413Y001780D01*
X009411Y001739D01*
X009405Y001698D01*
X009395Y001658D01*
X009382Y001619D01*
X009365Y001582D01*
X009344Y001546D01*
X009320Y001512D01*
X009293Y001481D01*
X009264Y001453D01*
X009231Y001427D01*
X009197Y001405D01*
X009160Y001386D01*
X009122Y001371D01*
X009082Y001359D01*
X009042Y001351D01*
X009001Y001347D01*
X008959Y001347D01*
X008918Y001351D01*
X008878Y001359D01*
X008838Y001371D01*
X008800Y001386D01*
X008764Y001405D01*
X008729Y001427D01*
X008696Y001453D01*
X008667Y001481D01*
X008640Y001512D01*
X008616Y001546D01*
X008595Y001582D01*
X008578Y001619D01*
X008565Y001658D01*
X008555Y001698D01*
X008549Y001739D01*
X008547Y001780D01*
X015847Y015680D02*
X015849Y015721D01*
X015855Y015762D01*
X015865Y015802D01*
X015878Y015841D01*
X015895Y015878D01*
X015916Y015914D01*
X015940Y015948D01*
X015967Y015979D01*
X015996Y016007D01*
X016029Y016033D01*
X016063Y016055D01*
X016100Y016074D01*
X016138Y016089D01*
X016178Y016101D01*
X016218Y016109D01*
X016259Y016113D01*
X016301Y016113D01*
X016342Y016109D01*
X016382Y016101D01*
X016422Y016089D01*
X016460Y016074D01*
X016496Y016055D01*
X016531Y016033D01*
X016564Y016007D01*
X016593Y015979D01*
X016620Y015948D01*
X016644Y015914D01*
X016665Y015878D01*
X016682Y015841D01*
X016695Y015802D01*
X016705Y015762D01*
X016711Y015721D01*
X016713Y015680D01*
X016711Y015639D01*
X016705Y015598D01*
X016695Y015558D01*
X016682Y015519D01*
X016665Y015482D01*
X016644Y015446D01*
X016620Y015412D01*
X016593Y015381D01*
X016564Y015353D01*
X016531Y015327D01*
X016497Y015305D01*
X016460Y015286D01*
X016422Y015271D01*
X016382Y015259D01*
X016342Y015251D01*
X016301Y015247D01*
X016259Y015247D01*
X016218Y015251D01*
X016178Y015259D01*
X016138Y015271D01*
X016100Y015286D01*
X016064Y015305D01*
X016029Y015327D01*
X015996Y015353D01*
X015967Y015381D01*
X015940Y015412D01*
X015916Y015446D01*
X015895Y015482D01*
X015878Y015519D01*
X015865Y015558D01*
X015855Y015598D01*
X015849Y015639D01*
X015847Y015680D01*
M02*
