G75*
G70*
%OFA0B0*%
%FSLAX24Y24*%
%IPPOS*%
%LPD*%
%AMOC8*
5,1,8,0,0,1.08239X$1,22.5*
%
%ADD10C,0.0030*%
%ADD11C,0.0000*%
%ADD12C,0.0050*%
%ADD13C,0.0040*%
%ADD14C,0.0120*%
%ADD15C,0.0060*%
%ADD16C,0.0080*%
%ADD17C,0.0010*%
%ADD18C,0.0020*%
D10*
X002257Y002695D02*
X002195Y002757D01*
X002257Y002695D02*
X002380Y002695D01*
X002442Y002757D01*
X002442Y002818D01*
X002380Y002880D01*
X002318Y002880D01*
X002380Y002880D02*
X002442Y002942D01*
X002442Y003004D01*
X002380Y003065D01*
X002257Y003065D01*
X002195Y003004D01*
X002563Y002942D02*
X002687Y002695D01*
X002810Y002942D01*
X003718Y006157D02*
X003718Y006404D01*
X003595Y006280D02*
X003842Y006280D01*
X004332Y006280D02*
X004579Y006280D01*
X012295Y005480D02*
X012542Y005480D01*
X012418Y005357D02*
X012418Y005604D01*
X012295Y004680D02*
X012542Y004680D01*
X012480Y004065D02*
X012357Y004065D01*
X012295Y004004D01*
X012295Y003942D01*
X012357Y003880D01*
X012480Y003880D01*
X012542Y003818D01*
X012542Y003757D01*
X012480Y003695D01*
X012357Y003695D01*
X012295Y003757D01*
X012542Y004004D02*
X012480Y004065D01*
X012818Y003065D02*
X012942Y002942D01*
X012942Y002695D01*
X013063Y002695D02*
X013248Y002695D01*
X013310Y002757D01*
X013310Y003004D01*
X013248Y003065D01*
X013063Y003065D01*
X013063Y002695D01*
X012942Y002880D02*
X012695Y002880D01*
X012695Y002942D02*
X012695Y002695D01*
X012695Y002942D02*
X012818Y003065D01*
X013432Y003004D02*
X013493Y003065D01*
X013617Y003065D01*
X013679Y003004D01*
X013679Y002942D01*
X013617Y002880D01*
X013679Y002818D01*
X013679Y002757D01*
X013617Y002695D01*
X013493Y002695D01*
X013432Y002757D01*
X013555Y002880D02*
X013617Y002880D01*
X013679Y006695D02*
X013432Y006695D01*
X013679Y006942D01*
X013679Y007004D01*
X013617Y007065D01*
X013493Y007065D01*
X013432Y007004D01*
X013310Y007004D02*
X013310Y006757D01*
X013248Y006695D01*
X013063Y006695D01*
X013063Y007065D01*
X013248Y007065D01*
X013310Y007004D01*
X012942Y006942D02*
X012942Y006695D01*
X012942Y006880D02*
X012695Y006880D01*
X012695Y006942D02*
X012695Y006695D01*
X012695Y006942D02*
X012818Y007065D01*
X012942Y006942D01*
X012480Y008195D02*
X012357Y008195D01*
X012295Y008257D01*
X012357Y008380D02*
X012295Y008442D01*
X012295Y008504D01*
X012357Y008565D01*
X012480Y008565D01*
X012542Y008504D01*
X012480Y008380D02*
X012542Y008318D01*
X012542Y008257D01*
X012480Y008195D01*
X012480Y008380D02*
X012357Y008380D01*
X012295Y009180D02*
X012542Y009180D01*
X012418Y009857D02*
X012418Y010104D01*
X012295Y009980D02*
X012542Y009980D01*
X012695Y011195D02*
X012695Y011442D01*
X012818Y011565D01*
X012942Y011442D01*
X012942Y011195D01*
X012942Y011442D01*
X012818Y011565D01*
X012695Y011442D01*
X012695Y011195D01*
X012695Y011380D02*
X012942Y011380D01*
X012695Y011380D01*
X013063Y011195D02*
X013248Y011195D01*
X013310Y011257D01*
X013310Y011504D01*
X013248Y011565D01*
X013063Y011565D01*
X013063Y011195D01*
X013248Y011195D01*
X013310Y011257D01*
X013310Y011504D01*
X013248Y011565D01*
X013063Y011565D01*
X013063Y011195D01*
X013432Y011257D02*
X013432Y011504D01*
X013493Y011565D01*
X013617Y011565D01*
X013679Y011504D01*
X013432Y011257D01*
X013493Y011195D01*
X013617Y011195D01*
X013679Y011257D01*
X013679Y011504D01*
X013432Y011257D01*
X013493Y011195D01*
X013617Y011195D01*
X013679Y011257D01*
X013679Y011504D01*
X013617Y011565D01*
X013493Y011565D01*
X013432Y011504D01*
X013432Y011257D01*
X012480Y012695D02*
X012357Y012695D01*
X012295Y012757D01*
X012357Y012880D02*
X012295Y012942D01*
X012295Y013004D01*
X012357Y013065D01*
X012480Y013065D01*
X012542Y013004D01*
X012480Y012880D02*
X012542Y012818D01*
X012542Y012757D01*
X012480Y012695D01*
X012480Y012880D02*
X012357Y012880D01*
X012295Y013680D02*
X012542Y013680D01*
X012418Y014357D02*
X012418Y014604D01*
X012295Y014480D02*
X012542Y014480D01*
D11*
X001680Y014180D02*
X001680Y002180D01*
X007180Y002180D01*
X007224Y002178D01*
X007267Y002172D01*
X007309Y002163D01*
X007351Y002150D01*
X007391Y002133D01*
X007430Y002113D01*
X007467Y002090D01*
X007501Y002063D01*
X007534Y002034D01*
X007563Y002001D01*
X007590Y001967D01*
X007613Y001930D01*
X007633Y001891D01*
X007650Y001851D01*
X007663Y001809D01*
X007672Y001767D01*
X007678Y001724D01*
X007680Y001680D01*
X007682Y001620D01*
X007687Y001559D01*
X007696Y001500D01*
X007709Y001441D01*
X007725Y001382D01*
X007745Y001325D01*
X007768Y001270D01*
X007795Y001215D01*
X007824Y001163D01*
X007857Y001112D01*
X007893Y001063D01*
X007931Y001017D01*
X007973Y000973D01*
X008017Y000931D01*
X008063Y000893D01*
X008112Y000857D01*
X008163Y000824D01*
X008215Y000795D01*
X008270Y000768D01*
X008325Y000745D01*
X008382Y000725D01*
X008441Y000709D01*
X008500Y000696D01*
X008559Y000687D01*
X008620Y000682D01*
X008680Y000680D01*
X009180Y000680D01*
X009240Y000682D01*
X009301Y000687D01*
X009360Y000696D01*
X009419Y000709D01*
X009478Y000725D01*
X009535Y000745D01*
X009590Y000768D01*
X009645Y000795D01*
X009697Y000824D01*
X009748Y000857D01*
X009797Y000893D01*
X009843Y000931D01*
X009887Y000973D01*
X009929Y001017D01*
X009967Y001063D01*
X010003Y001112D01*
X010036Y001163D01*
X010065Y001215D01*
X010092Y001270D01*
X010115Y001325D01*
X010135Y001382D01*
X010151Y001441D01*
X010164Y001500D01*
X010173Y001559D01*
X010178Y001620D01*
X010180Y001680D01*
X010182Y001724D01*
X010188Y001767D01*
X010197Y001809D01*
X010210Y001851D01*
X010227Y001891D01*
X010247Y001930D01*
X010270Y001967D01*
X010297Y002001D01*
X010326Y002034D01*
X010359Y002063D01*
X010393Y002090D01*
X010430Y002113D01*
X010469Y002133D01*
X010509Y002150D01*
X010551Y002163D01*
X010593Y002172D01*
X010636Y002178D01*
X010680Y002180D01*
X016180Y002180D01*
X016180Y014180D01*
X016180Y014181D02*
X016251Y014194D01*
X016320Y014212D01*
X016389Y014233D01*
X016456Y014257D01*
X016522Y014286D01*
X016586Y014318D01*
X016649Y014353D01*
X016709Y014392D01*
X016767Y014434D01*
X016823Y014480D01*
X016876Y014528D01*
X016926Y014579D01*
X016974Y014633D01*
X017018Y014689D01*
X017059Y014747D01*
X017098Y014808D01*
X017132Y014871D01*
X017163Y014936D01*
X017191Y015002D01*
X017215Y015069D01*
X017235Y015138D01*
X017251Y015208D01*
X017264Y015279D01*
X017272Y015350D01*
X017277Y015422D01*
X017278Y015493D01*
X017275Y015565D01*
X017268Y015636D01*
X017256Y015707D01*
X017242Y015777D01*
X017223Y015847D01*
X017200Y015915D01*
X017174Y015981D01*
X017144Y016047D01*
X017111Y016110D01*
X017074Y016172D01*
X017034Y016231D01*
X016991Y016288D01*
X016944Y016343D01*
X016895Y016395D01*
X016843Y016444D01*
X016788Y016491D01*
X016731Y016534D01*
X016672Y016574D01*
X016610Y016611D01*
X016547Y016644D01*
X016481Y016674D01*
X016415Y016700D01*
X016347Y016723D01*
X016277Y016742D01*
X016207Y016756D01*
X016136Y016768D01*
X016065Y016775D01*
X015993Y016778D01*
X015922Y016777D01*
X015850Y016772D01*
X015779Y016764D01*
X015708Y016751D01*
X015638Y016735D01*
X015569Y016715D01*
X015502Y016691D01*
X015436Y016663D01*
X015371Y016632D01*
X015308Y016598D01*
X015247Y016559D01*
X015189Y016518D01*
X015133Y016474D01*
X015079Y016426D01*
X015028Y016376D01*
X014980Y016323D01*
X014934Y016267D01*
X014892Y016209D01*
X014853Y016149D01*
X014818Y016086D01*
X014786Y016022D01*
X014757Y015956D01*
X014733Y015889D01*
X014712Y015820D01*
X014694Y015751D01*
X014681Y015680D01*
X014680Y015680D02*
X010180Y015680D01*
X008680Y014180D01*
X005680Y014180D01*
X004180Y015680D01*
X003180Y015680D01*
X003179Y015680D02*
X003166Y015751D01*
X003148Y015820D01*
X003127Y015889D01*
X003103Y015956D01*
X003074Y016022D01*
X003042Y016086D01*
X003007Y016149D01*
X002968Y016209D01*
X002926Y016267D01*
X002880Y016323D01*
X002832Y016376D01*
X002781Y016426D01*
X002727Y016474D01*
X002671Y016518D01*
X002613Y016559D01*
X002552Y016598D01*
X002489Y016632D01*
X002424Y016663D01*
X002358Y016691D01*
X002291Y016715D01*
X002222Y016735D01*
X002152Y016751D01*
X002081Y016764D01*
X002010Y016772D01*
X001938Y016777D01*
X001867Y016778D01*
X001795Y016775D01*
X001724Y016768D01*
X001653Y016756D01*
X001583Y016742D01*
X001513Y016723D01*
X001445Y016700D01*
X001379Y016674D01*
X001313Y016644D01*
X001250Y016611D01*
X001188Y016574D01*
X001129Y016534D01*
X001072Y016491D01*
X001017Y016444D01*
X000965Y016395D01*
X000916Y016343D01*
X000869Y016288D01*
X000826Y016231D01*
X000786Y016172D01*
X000749Y016110D01*
X000716Y016047D01*
X000686Y015981D01*
X000660Y015915D01*
X000637Y015847D01*
X000618Y015777D01*
X000604Y015707D01*
X000592Y015636D01*
X000585Y015565D01*
X000582Y015493D01*
X000583Y015422D01*
X000588Y015350D01*
X000596Y015279D01*
X000609Y015208D01*
X000625Y015138D01*
X000645Y015069D01*
X000669Y015002D01*
X000697Y014936D01*
X000728Y014871D01*
X000762Y014808D01*
X000801Y014747D01*
X000842Y014689D01*
X000886Y014633D01*
X000934Y014579D01*
X000984Y014528D01*
X001037Y014480D01*
X001093Y014434D01*
X001151Y014392D01*
X001211Y014353D01*
X001274Y014318D01*
X001338Y014286D01*
X001404Y014257D01*
X001471Y014233D01*
X001540Y014212D01*
X001609Y014194D01*
X001680Y014181D01*
X001247Y015680D02*
X001249Y015721D01*
X001255Y015762D01*
X001265Y015802D01*
X001278Y015841D01*
X001295Y015878D01*
X001316Y015914D01*
X001340Y015948D01*
X001367Y015979D01*
X001396Y016007D01*
X001429Y016033D01*
X001463Y016055D01*
X001500Y016074D01*
X001538Y016089D01*
X001578Y016101D01*
X001618Y016109D01*
X001659Y016113D01*
X001701Y016113D01*
X001742Y016109D01*
X001782Y016101D01*
X001822Y016089D01*
X001860Y016074D01*
X001896Y016055D01*
X001931Y016033D01*
X001964Y016007D01*
X001993Y015979D01*
X002020Y015948D01*
X002044Y015914D01*
X002065Y015878D01*
X002082Y015841D01*
X002095Y015802D01*
X002105Y015762D01*
X002111Y015721D01*
X002113Y015680D01*
X002111Y015639D01*
X002105Y015598D01*
X002095Y015558D01*
X002082Y015519D01*
X002065Y015482D01*
X002044Y015446D01*
X002020Y015412D01*
X001993Y015381D01*
X001964Y015353D01*
X001931Y015327D01*
X001897Y015305D01*
X001860Y015286D01*
X001822Y015271D01*
X001782Y015259D01*
X001742Y015251D01*
X001701Y015247D01*
X001659Y015247D01*
X001618Y015251D01*
X001578Y015259D01*
X001538Y015271D01*
X001500Y015286D01*
X001464Y015305D01*
X001429Y015327D01*
X001396Y015353D01*
X001367Y015381D01*
X001340Y015412D01*
X001316Y015446D01*
X001295Y015482D01*
X001278Y015519D01*
X001265Y015558D01*
X001255Y015598D01*
X001249Y015639D01*
X001247Y015680D01*
X008547Y001780D02*
X008549Y001821D01*
X008555Y001862D01*
X008565Y001902D01*
X008578Y001941D01*
X008595Y001978D01*
X008616Y002014D01*
X008640Y002048D01*
X008667Y002079D01*
X008696Y002107D01*
X008729Y002133D01*
X008763Y002155D01*
X008800Y002174D01*
X008838Y002189D01*
X008878Y002201D01*
X008918Y002209D01*
X008959Y002213D01*
X009001Y002213D01*
X009042Y002209D01*
X009082Y002201D01*
X009122Y002189D01*
X009160Y002174D01*
X009196Y002155D01*
X009231Y002133D01*
X009264Y002107D01*
X009293Y002079D01*
X009320Y002048D01*
X009344Y002014D01*
X009365Y001978D01*
X009382Y001941D01*
X009395Y001902D01*
X009405Y001862D01*
X009411Y001821D01*
X009413Y001780D01*
X009411Y001739D01*
X009405Y001698D01*
X009395Y001658D01*
X009382Y001619D01*
X009365Y001582D01*
X009344Y001546D01*
X009320Y001512D01*
X009293Y001481D01*
X009264Y001453D01*
X009231Y001427D01*
X009197Y001405D01*
X009160Y001386D01*
X009122Y001371D01*
X009082Y001359D01*
X009042Y001351D01*
X009001Y001347D01*
X008959Y001347D01*
X008918Y001351D01*
X008878Y001359D01*
X008838Y001371D01*
X008800Y001386D01*
X008764Y001405D01*
X008729Y001427D01*
X008696Y001453D01*
X008667Y001481D01*
X008640Y001512D01*
X008616Y001546D01*
X008595Y001582D01*
X008578Y001619D01*
X008565Y001658D01*
X008555Y001698D01*
X008549Y001739D01*
X008547Y001780D01*
X015847Y015680D02*
X015849Y015721D01*
X015855Y015762D01*
X015865Y015802D01*
X015878Y015841D01*
X015895Y015878D01*
X015916Y015914D01*
X015940Y015948D01*
X015967Y015979D01*
X015996Y016007D01*
X016029Y016033D01*
X016063Y016055D01*
X016100Y016074D01*
X016138Y016089D01*
X016178Y016101D01*
X016218Y016109D01*
X016259Y016113D01*
X016301Y016113D01*
X016342Y016109D01*
X016382Y016101D01*
X016422Y016089D01*
X016460Y016074D01*
X016496Y016055D01*
X016531Y016033D01*
X016564Y016007D01*
X016593Y015979D01*
X016620Y015948D01*
X016644Y015914D01*
X016665Y015878D01*
X016682Y015841D01*
X016695Y015802D01*
X016705Y015762D01*
X016711Y015721D01*
X016713Y015680D01*
X016711Y015639D01*
X016705Y015598D01*
X016695Y015558D01*
X016682Y015519D01*
X016665Y015482D01*
X016644Y015446D01*
X016620Y015412D01*
X016593Y015381D01*
X016564Y015353D01*
X016531Y015327D01*
X016497Y015305D01*
X016460Y015286D01*
X016422Y015271D01*
X016382Y015259D01*
X016342Y015251D01*
X016301Y015247D01*
X016259Y015247D01*
X016218Y015251D01*
X016178Y015259D01*
X016138Y015271D01*
X016100Y015286D01*
X016064Y015305D01*
X016029Y015327D01*
X015996Y015353D01*
X015967Y015381D01*
X015940Y015412D01*
X015916Y015446D01*
X015895Y015482D01*
X015878Y015519D01*
X015865Y015558D01*
X015855Y015598D01*
X015849Y015639D01*
X015847Y015680D01*
D12*
X012101Y015436D02*
X008952Y017995D01*
X005211Y017995D01*
X002259Y015436D01*
X002259Y007168D01*
X012101Y007168D01*
X012101Y015436D01*
X012005Y005945D02*
X012005Y005645D01*
X012005Y005795D02*
X011555Y005795D01*
X011705Y005645D01*
X011630Y005484D02*
X011555Y005409D01*
X011555Y005259D01*
X011630Y005184D01*
X011930Y005184D01*
X012005Y005259D01*
X012005Y005409D01*
X011930Y005484D01*
D13*
X009088Y006401D02*
X008781Y006401D01*
X009088Y006708D01*
X009088Y006784D01*
X009011Y006861D01*
X008858Y006861D01*
X008781Y006784D01*
X008628Y006784D02*
X008551Y006861D01*
X008398Y006861D01*
X008321Y006784D01*
X008321Y006708D01*
X008398Y006631D01*
X008551Y006631D01*
X008628Y006554D01*
X008628Y006478D01*
X008551Y006401D01*
X008398Y006401D01*
X008321Y006478D01*
X008167Y006324D02*
X007860Y006324D01*
X007707Y006401D02*
X007400Y006401D01*
X007400Y006861D01*
X007707Y006861D01*
X007554Y006631D02*
X007400Y006631D01*
X007247Y006861D02*
X006940Y006861D01*
X006940Y006401D01*
X007247Y006401D01*
X007093Y006631D02*
X006940Y006631D01*
X006786Y006708D02*
X006709Y006631D01*
X006479Y006631D01*
X006479Y006401D02*
X006479Y006861D01*
X006709Y006861D01*
X006786Y006784D01*
X006786Y006708D01*
X006709Y006631D02*
X006786Y006554D01*
X006786Y006478D01*
X006709Y006401D01*
X006479Y006401D01*
X006326Y006401D02*
X006019Y006861D01*
X006326Y006861D02*
X006019Y006401D01*
D14*
X010430Y004800D02*
X010680Y004800D01*
X010930Y004800D01*
X010930Y004550D02*
X010680Y004550D01*
X010430Y004550D01*
D15*
X010680Y004550D02*
X010680Y004080D01*
X010680Y004800D02*
X010680Y005280D01*
X009980Y006030D02*
X009982Y006047D01*
X009986Y006064D01*
X009993Y006080D01*
X010003Y006094D01*
X010016Y006107D01*
X010030Y006117D01*
X010046Y006124D01*
X010063Y006128D01*
X010080Y006130D01*
X011280Y006130D01*
X011297Y006128D01*
X011314Y006124D01*
X011330Y006117D01*
X011344Y006107D01*
X011357Y006094D01*
X011367Y006080D01*
X011374Y006064D01*
X011378Y006047D01*
X011380Y006030D01*
X011380Y003330D01*
X011378Y003313D01*
X011374Y003296D01*
X011367Y003280D01*
X011357Y003266D01*
X011344Y003253D01*
X011330Y003243D01*
X011314Y003236D01*
X011297Y003232D01*
X011280Y003230D01*
X010080Y003230D01*
X010063Y003232D01*
X010046Y003236D01*
X010030Y003243D01*
X010016Y003253D01*
X010003Y003266D01*
X009993Y003280D01*
X009986Y003296D01*
X009982Y003313D01*
X009980Y003330D01*
X009980Y006030D01*
D16*
X008930Y005430D02*
X008972Y005378D01*
X009011Y005324D01*
X009046Y005267D01*
X009079Y005209D01*
X009107Y005149D01*
X009133Y005087D01*
X009155Y005024D01*
X009173Y004959D01*
X009187Y004894D01*
X009197Y004828D01*
X009204Y004762D01*
X009207Y004695D01*
X009206Y004628D01*
X009201Y004562D01*
X009192Y004496D01*
X009180Y004430D01*
X009164Y004369D01*
X009146Y004309D01*
X009124Y004251D01*
X009099Y004193D01*
X009071Y004137D01*
X009040Y004082D01*
X009006Y004030D01*
X008969Y003979D01*
X008930Y003930D01*
X009180Y004430D02*
X009192Y004492D01*
X009200Y004554D01*
X009205Y004617D01*
X009207Y004680D01*
X009205Y004743D01*
X009200Y004806D01*
X009192Y004868D01*
X009180Y004930D01*
X007530Y005505D02*
X007530Y003855D01*
X005361Y002818D02*
X002999Y002818D01*
X002999Y005889D01*
X003393Y005889D01*
X003393Y005180D01*
X004967Y005180D02*
X004967Y005889D01*
X005361Y005889D01*
X005361Y002818D01*
X012700Y003105D02*
X012700Y003381D01*
X013211Y003381D01*
X012700Y003105D02*
X015771Y003105D01*
X015771Y006255D01*
X012700Y006255D01*
X012700Y005979D01*
X013211Y005979D01*
X012700Y007605D02*
X012700Y007881D01*
X013211Y007881D01*
X012700Y007605D02*
X015771Y007605D01*
X015771Y010755D01*
X012700Y010755D01*
X012700Y010479D01*
X013211Y010479D01*
X012700Y012105D02*
X012700Y012381D01*
X013211Y012381D01*
X012700Y012105D02*
X015771Y012105D01*
X015771Y015255D01*
X012700Y015255D01*
X012700Y014979D01*
X013211Y014979D01*
D17*
X015279Y014088D02*
X015429Y014088D01*
X015429Y014038D02*
X015429Y014138D01*
X015329Y014038D02*
X015279Y014088D01*
X015304Y013990D02*
X015279Y013965D01*
X015279Y013890D01*
X015429Y013890D01*
X015379Y013890D02*
X015379Y013965D01*
X015354Y013990D01*
X015304Y013990D01*
X015279Y013843D02*
X015279Y013793D01*
X015279Y013818D02*
X015404Y013818D01*
X015429Y013793D01*
X015429Y013768D01*
X015404Y013743D01*
X015429Y009638D02*
X015429Y009538D01*
X015329Y009638D01*
X015304Y009638D01*
X015279Y009613D01*
X015279Y009563D01*
X015304Y009538D01*
X015304Y009490D02*
X015354Y009490D01*
X015379Y009465D01*
X015379Y009390D01*
X015429Y009390D02*
X015279Y009390D01*
X015279Y009465D01*
X015304Y009490D01*
X015279Y009343D02*
X015279Y009293D01*
X015279Y009318D02*
X015404Y009318D01*
X015429Y009293D01*
X015429Y009268D01*
X015404Y009243D01*
X015404Y005138D02*
X015429Y005113D01*
X015429Y005063D01*
X015404Y005038D01*
X015354Y004990D02*
X015379Y004965D01*
X015379Y004890D01*
X015429Y004890D02*
X015279Y004890D01*
X015279Y004965D01*
X015304Y004990D01*
X015354Y004990D01*
X015304Y005038D02*
X015279Y005063D01*
X015279Y005113D01*
X015304Y005138D01*
X015329Y005138D01*
X015354Y005113D01*
X015379Y005138D01*
X015404Y005138D01*
X015354Y005113D02*
X015354Y005088D01*
X015279Y004843D02*
X015279Y004793D01*
X015279Y004818D02*
X015404Y004818D01*
X015429Y004793D01*
X015429Y004768D01*
X015404Y004743D01*
X009215Y005004D02*
X009148Y004984D01*
X009128Y005042D01*
X009105Y005098D01*
X009078Y005153D01*
X009048Y005206D01*
X009014Y005258D01*
X008978Y005307D01*
X008939Y005354D01*
X008897Y005398D01*
X008852Y005440D01*
X008805Y005480D01*
X008756Y005516D01*
X008705Y005549D01*
X008651Y005579D01*
X008596Y005606D01*
X008540Y005629D01*
X008482Y005649D01*
X008423Y005665D01*
X008363Y005678D01*
X008303Y005688D01*
X008242Y005693D01*
X008181Y005695D01*
X008119Y005693D01*
X008058Y005688D01*
X007998Y005679D01*
X007938Y005666D01*
X007879Y005649D01*
X007821Y005630D01*
X007765Y005606D01*
X007710Y005579D01*
X007656Y005550D01*
X007605Y005516D01*
X007556Y005480D01*
X007513Y005535D01*
X007512Y005535D01*
X007565Y005574D01*
X007620Y005609D01*
X007677Y005641D01*
X007736Y005670D01*
X007796Y005695D01*
X007858Y005716D01*
X007921Y005734D01*
X007985Y005747D01*
X008050Y005757D01*
X008115Y005763D01*
X008181Y005765D01*
X008246Y005763D01*
X008311Y005757D01*
X008376Y005747D01*
X008440Y005733D01*
X008503Y005716D01*
X008565Y005695D01*
X008625Y005670D01*
X008684Y005641D01*
X008741Y005609D01*
X008796Y005573D01*
X008849Y005535D01*
X008899Y005493D01*
X008946Y005448D01*
X008991Y005400D01*
X009033Y005350D01*
X009072Y005297D01*
X009108Y005243D01*
X009140Y005186D01*
X009169Y005127D01*
X009194Y005066D01*
X009215Y005005D01*
X009207Y005002D01*
X009185Y005063D01*
X009160Y005123D01*
X009132Y005181D01*
X009100Y005238D01*
X009065Y005292D01*
X009026Y005345D01*
X008985Y005394D01*
X008940Y005442D01*
X008893Y005486D01*
X008843Y005527D01*
X008791Y005566D01*
X008736Y005601D01*
X008680Y005633D01*
X008621Y005661D01*
X008561Y005686D01*
X008500Y005707D01*
X008438Y005725D01*
X008374Y005738D01*
X008310Y005748D01*
X008245Y005754D01*
X008181Y005756D01*
X008116Y005754D01*
X008051Y005748D01*
X007987Y005739D01*
X007923Y005725D01*
X007861Y005708D01*
X007800Y005687D01*
X007740Y005662D01*
X007681Y005633D01*
X007625Y005602D01*
X007570Y005567D01*
X007518Y005528D01*
X007523Y005521D01*
X007575Y005559D01*
X007629Y005594D01*
X007685Y005625D01*
X007743Y005654D01*
X007803Y005678D01*
X007864Y005699D01*
X007926Y005716D01*
X007989Y005730D01*
X008052Y005739D01*
X008116Y005745D01*
X008181Y005747D01*
X008245Y005745D01*
X008309Y005739D01*
X008372Y005729D01*
X008435Y005716D01*
X008497Y005699D01*
X008558Y005678D01*
X008618Y005653D01*
X008675Y005625D01*
X008732Y005593D01*
X008786Y005559D01*
X008837Y005520D01*
X008887Y005479D01*
X008934Y005435D01*
X008978Y005388D01*
X009019Y005339D01*
X009057Y005287D01*
X009092Y005233D01*
X009124Y005177D01*
X009152Y005120D01*
X009177Y005060D01*
X009198Y004999D01*
X009189Y004997D01*
X009169Y005057D01*
X009144Y005116D01*
X009116Y005173D01*
X009085Y005229D01*
X009050Y005282D01*
X009012Y005334D01*
X008971Y005382D01*
X008927Y005429D01*
X008881Y005473D01*
X008832Y005513D01*
X008780Y005551D01*
X008727Y005586D01*
X008671Y005617D01*
X008614Y005645D01*
X008555Y005669D01*
X008495Y005690D01*
X008433Y005707D01*
X008371Y005721D01*
X008308Y005730D01*
X008244Y005736D01*
X008181Y005738D01*
X008117Y005736D01*
X008053Y005730D01*
X007990Y005721D01*
X007928Y005708D01*
X007866Y005690D01*
X007806Y005670D01*
X007747Y005645D01*
X007690Y005618D01*
X007634Y005586D01*
X007580Y005552D01*
X007529Y005514D01*
X007535Y005507D01*
X007586Y005544D01*
X007639Y005579D01*
X007694Y005610D01*
X007751Y005637D01*
X007809Y005661D01*
X007869Y005682D01*
X007930Y005699D01*
X007992Y005712D01*
X008054Y005721D01*
X008117Y005727D01*
X008181Y005729D01*
X008244Y005727D01*
X008307Y005721D01*
X008369Y005712D01*
X008431Y005699D01*
X008492Y005682D01*
X008552Y005661D01*
X008610Y005637D01*
X008667Y005609D01*
X008722Y005578D01*
X008775Y005544D01*
X008826Y005506D01*
X008875Y005466D01*
X008921Y005423D01*
X008964Y005377D01*
X009005Y005328D01*
X009042Y005277D01*
X009077Y005224D01*
X009108Y005169D01*
X009136Y005112D01*
X009160Y005054D01*
X009181Y004994D01*
X009172Y004991D01*
X009152Y005051D01*
X009128Y005108D01*
X009100Y005165D01*
X009069Y005219D01*
X009035Y005272D01*
X008998Y005322D01*
X008958Y005371D01*
X008915Y005416D01*
X008869Y005459D01*
X008821Y005499D01*
X008770Y005536D01*
X008718Y005570D01*
X008663Y005601D01*
X008607Y005629D01*
X008549Y005652D01*
X008489Y005673D01*
X008429Y005690D01*
X008368Y005703D01*
X008306Y005712D01*
X008243Y005718D01*
X008181Y005720D01*
X008118Y005718D01*
X008055Y005713D01*
X007993Y005703D01*
X007932Y005690D01*
X007872Y005673D01*
X007812Y005653D01*
X007754Y005629D01*
X007698Y005602D01*
X007643Y005571D01*
X007591Y005537D01*
X007540Y005500D01*
X007546Y005493D01*
X007596Y005530D01*
X007648Y005563D01*
X007702Y005594D01*
X007758Y005621D01*
X007816Y005644D01*
X007874Y005665D01*
X007934Y005681D01*
X007995Y005694D01*
X008057Y005704D01*
X008118Y005709D01*
X008181Y005711D01*
X008243Y005709D01*
X008305Y005703D01*
X008366Y005694D01*
X008427Y005681D01*
X008487Y005664D01*
X008545Y005644D01*
X008603Y005620D01*
X008659Y005593D01*
X008713Y005563D01*
X008765Y005529D01*
X008815Y005492D01*
X008863Y005452D01*
X008908Y005410D01*
X008951Y005365D01*
X008991Y005317D01*
X009028Y005267D01*
X009061Y005215D01*
X009092Y005161D01*
X009119Y005105D01*
X009143Y005047D01*
X009164Y004989D01*
X009155Y004986D01*
X009135Y005044D01*
X009111Y005101D01*
X009084Y005156D01*
X009054Y005210D01*
X009020Y005262D01*
X008984Y005311D01*
X008944Y005359D01*
X008902Y005403D01*
X008857Y005446D01*
X008810Y005485D01*
X008760Y005521D01*
X008708Y005555D01*
X008655Y005585D01*
X008599Y005612D01*
X008542Y005636D01*
X008484Y005656D01*
X008425Y005672D01*
X008364Y005685D01*
X008304Y005695D01*
X008242Y005700D01*
X008181Y005702D01*
X008119Y005700D01*
X008058Y005695D01*
X007997Y005685D01*
X007936Y005673D01*
X007877Y005656D01*
X007819Y005636D01*
X007762Y005613D01*
X007706Y005586D01*
X007653Y005556D01*
X007601Y005522D01*
X007551Y005486D01*
X007513Y003825D02*
X007556Y003880D01*
X007605Y003844D01*
X007656Y003810D01*
X007710Y003781D01*
X007765Y003754D01*
X007821Y003730D01*
X007879Y003711D01*
X007938Y003694D01*
X007998Y003681D01*
X008058Y003672D01*
X008119Y003667D01*
X008181Y003665D01*
X008242Y003667D01*
X008303Y003672D01*
X008363Y003682D01*
X008423Y003695D01*
X008482Y003711D01*
X008540Y003731D01*
X008596Y003754D01*
X008651Y003781D01*
X008705Y003811D01*
X008756Y003844D01*
X008805Y003880D01*
X008852Y003920D01*
X008897Y003961D01*
X008939Y004006D01*
X008978Y004053D01*
X009014Y004102D01*
X009048Y004153D01*
X009078Y004207D01*
X009105Y004262D01*
X009128Y004318D01*
X009148Y004376D01*
X009215Y004356D01*
X009215Y004355D01*
X009194Y004294D01*
X009169Y004233D01*
X009140Y004174D01*
X009108Y004117D01*
X009072Y004063D01*
X009033Y004010D01*
X008991Y003960D01*
X008946Y003912D01*
X008899Y003867D01*
X008849Y003825D01*
X008796Y003787D01*
X008741Y003751D01*
X008684Y003719D01*
X008625Y003690D01*
X008565Y003665D01*
X008503Y003644D01*
X008440Y003627D01*
X008376Y003613D01*
X008311Y003603D01*
X008246Y003597D01*
X008180Y003595D01*
X008115Y003597D01*
X008050Y003603D01*
X007985Y003613D01*
X007921Y003626D01*
X007858Y003644D01*
X007796Y003665D01*
X007736Y003690D01*
X007677Y003719D01*
X007620Y003751D01*
X007565Y003786D01*
X007512Y003825D01*
X007518Y003832D01*
X007570Y003794D01*
X007625Y003758D01*
X007681Y003727D01*
X007740Y003698D01*
X007800Y003673D01*
X007861Y003652D01*
X007923Y003635D01*
X007987Y003621D01*
X008051Y003612D01*
X008116Y003606D01*
X008181Y003604D01*
X008245Y003606D01*
X008310Y003612D01*
X008374Y003622D01*
X008438Y003635D01*
X008500Y003653D01*
X008561Y003674D01*
X008621Y003699D01*
X008680Y003727D01*
X008736Y003759D01*
X008791Y003794D01*
X008843Y003832D01*
X008893Y003874D01*
X008940Y003918D01*
X008985Y003966D01*
X009026Y004015D01*
X009065Y004068D01*
X009100Y004122D01*
X009132Y004179D01*
X009160Y004237D01*
X009185Y004297D01*
X009207Y004358D01*
X009198Y004361D01*
X009177Y004300D01*
X009152Y004240D01*
X009124Y004183D01*
X009092Y004127D01*
X009057Y004073D01*
X009019Y004021D01*
X008978Y003972D01*
X008934Y003925D01*
X008887Y003881D01*
X008837Y003840D01*
X008786Y003801D01*
X008732Y003767D01*
X008675Y003735D01*
X008618Y003707D01*
X008558Y003682D01*
X008497Y003661D01*
X008435Y003644D01*
X008372Y003631D01*
X008309Y003621D01*
X008245Y003615D01*
X008181Y003613D01*
X008116Y003615D01*
X008052Y003621D01*
X007989Y003630D01*
X007926Y003644D01*
X007864Y003661D01*
X007803Y003682D01*
X007743Y003706D01*
X007685Y003735D01*
X007629Y003766D01*
X007575Y003801D01*
X007523Y003839D01*
X007529Y003846D01*
X007580Y003808D01*
X007634Y003774D01*
X007690Y003742D01*
X007747Y003715D01*
X007806Y003690D01*
X007866Y003670D01*
X007928Y003653D01*
X007990Y003639D01*
X008053Y003630D01*
X008117Y003624D01*
X008181Y003622D01*
X008244Y003624D01*
X008308Y003630D01*
X008371Y003639D01*
X008433Y003653D01*
X008495Y003670D01*
X008555Y003691D01*
X008614Y003715D01*
X008671Y003743D01*
X008727Y003774D01*
X008780Y003809D01*
X008832Y003847D01*
X008881Y003887D01*
X008927Y003931D01*
X008971Y003978D01*
X009012Y004026D01*
X009050Y004078D01*
X009085Y004131D01*
X009116Y004187D01*
X009144Y004244D01*
X009169Y004303D01*
X009189Y004363D01*
X009181Y004366D01*
X009160Y004306D01*
X009136Y004248D01*
X009108Y004191D01*
X009077Y004136D01*
X009042Y004083D01*
X009005Y004032D01*
X008964Y003983D01*
X008921Y003937D01*
X008875Y003894D01*
X008826Y003854D01*
X008775Y003816D01*
X008722Y003782D01*
X008667Y003751D01*
X008610Y003723D01*
X008552Y003699D01*
X008492Y003678D01*
X008431Y003661D01*
X008369Y003648D01*
X008307Y003639D01*
X008244Y003633D01*
X008181Y003631D01*
X008117Y003633D01*
X008054Y003639D01*
X007992Y003648D01*
X007930Y003661D01*
X007869Y003678D01*
X007809Y003699D01*
X007751Y003723D01*
X007694Y003750D01*
X007639Y003781D01*
X007586Y003816D01*
X007535Y003853D01*
X007540Y003860D01*
X007591Y003823D01*
X007643Y003789D01*
X007698Y003758D01*
X007754Y003731D01*
X007812Y003707D01*
X007872Y003687D01*
X007932Y003670D01*
X007993Y003657D01*
X008055Y003647D01*
X008118Y003642D01*
X008181Y003640D01*
X008243Y003642D01*
X008306Y003648D01*
X008368Y003657D01*
X008429Y003670D01*
X008489Y003687D01*
X008549Y003708D01*
X008607Y003731D01*
X008663Y003759D01*
X008718Y003790D01*
X008770Y003824D01*
X008821Y003861D01*
X008869Y003901D01*
X008915Y003944D01*
X008958Y003989D01*
X008998Y004038D01*
X009035Y004088D01*
X009069Y004141D01*
X009100Y004195D01*
X009128Y004251D01*
X009152Y004309D01*
X009172Y004369D01*
X009164Y004371D01*
X009143Y004313D01*
X009119Y004255D01*
X009092Y004199D01*
X009061Y004145D01*
X009028Y004093D01*
X008991Y004043D01*
X008951Y003995D01*
X008908Y003950D01*
X008863Y003908D01*
X008815Y003868D01*
X008765Y003831D01*
X008713Y003797D01*
X008659Y003767D01*
X008603Y003740D01*
X008545Y003716D01*
X008487Y003696D01*
X008427Y003679D01*
X008366Y003666D01*
X008305Y003657D01*
X008243Y003651D01*
X008181Y003649D01*
X008118Y003651D01*
X008057Y003656D01*
X007995Y003666D01*
X007934Y003679D01*
X007874Y003695D01*
X007816Y003716D01*
X007758Y003739D01*
X007702Y003766D01*
X007648Y003797D01*
X007596Y003830D01*
X007546Y003867D01*
X007551Y003874D01*
X007601Y003838D01*
X007653Y003805D01*
X007706Y003774D01*
X007762Y003747D01*
X007819Y003724D01*
X007877Y003704D01*
X007936Y003687D01*
X007997Y003675D01*
X008058Y003665D01*
X008119Y003660D01*
X008181Y003658D01*
X008242Y003660D01*
X008303Y003665D01*
X008364Y003675D01*
X008425Y003688D01*
X008484Y003704D01*
X008542Y003724D01*
X008599Y003748D01*
X008655Y003775D01*
X008708Y003805D01*
X008760Y003838D01*
X008810Y003875D01*
X008857Y003914D01*
X008902Y003957D01*
X008944Y004001D01*
X008984Y004049D01*
X009020Y004098D01*
X009054Y004150D01*
X009084Y004204D01*
X009111Y004259D01*
X009135Y004316D01*
X009155Y004374D01*
X004638Y003025D02*
X004538Y003025D01*
X004613Y003100D01*
X004613Y002950D01*
X004490Y003025D02*
X004465Y003000D01*
X004390Y003000D01*
X004390Y002950D02*
X004390Y003100D01*
X004465Y003100D01*
X004490Y003075D01*
X004490Y003025D01*
X004343Y003100D02*
X004293Y003100D01*
X004318Y003100D02*
X004318Y002975D01*
X004293Y002950D01*
X004268Y002950D01*
X004243Y002975D01*
D18*
X008940Y003145D02*
X009057Y003145D01*
X009080Y003169D01*
X009080Y003215D01*
X009057Y003239D01*
X008940Y003239D01*
X008987Y003293D02*
X008940Y003339D01*
X009080Y003339D01*
X009080Y003293D02*
X009080Y003386D01*
M02*
